<mxfile host="app.diagrams.net" agent="Mozilla/5.0 (Macintosh; Intel Mac OS X 10.15; rv:142.0) Gecko/20100101 Firefox/142.0" version="28.1.1">
  <diagram name="Seite-1" id="7jTLnn59OOUZpLqQDI4G">
    <mxGraphModel dx="1088" dy="1404" grid="1" gridSize="10" guides="1" tooltips="1" connect="1" arrows="1" fold="1" page="1" pageScale="1" pageWidth="827" pageHeight="1169" math="0" shadow="0">
      <root>
        <mxCell id="0" />
        <mxCell id="1" parent="0" />
        <mxCell id="Vqp-YqoyTi2O_p_7qMB2-4" value="" style="rounded=1;whiteSpace=wrap;html=1;fillColor=#f8cecc;strokeColor=#b85450;" vertex="1" parent="1">
          <mxGeometry x="560" y="210" width="500" height="250" as="geometry" />
        </mxCell>
        <mxCell id="Vqp-YqoyTi2O_p_7qMB2-3" value="" style="rounded=1;whiteSpace=wrap;html=1;fillColor=#d5e8d4;strokeColor=#82b366;" vertex="1" parent="1">
          <mxGeometry x="20" y="210" width="500" height="250" as="geometry" />
        </mxCell>
        <mxCell id="Vqp-YqoyTi2O_p_7qMB2-1" value="" style="shape=image;html=1;verticalAlign=top;verticalLabelPosition=bottom;labelBackgroundColor=#ffffff;imageAspect=0;aspect=fixed;image=https://icons.diagrams.net/icon-cache1/Phosphor_Regular_Vol_4-2948/robot-1474.svg" vertex="1" parent="1">
          <mxGeometry x="20" y="210" width="256" height="256" as="geometry" />
        </mxCell>
        <mxCell id="Vqp-YqoyTi2O_p_7qMB2-2" value="" style="shape=image;html=1;verticalAlign=top;verticalLabelPosition=bottom;labelBackgroundColor=#ffffff;imageAspect=0;aspect=fixed;image=https://icons.diagrams.net/icon-cache1/Phosphor_Duotone_Vol_4-2933/robot-duotone-1373.svg" vertex="1" parent="1">
          <mxGeometry x="804" y="207" width="256" height="256" as="geometry" />
        </mxCell>
        <mxCell id="Vqp-YqoyTi2O_p_7qMB2-5" value="" style="shape=image;html=1;verticalAlign=top;verticalLabelPosition=bottom;labelBackgroundColor=#ffffff;imageAspect=0;aspect=fixed;image=https://icons.diagrams.net/icon-cache1/Phosphor_Regular_Vol_4-2948/robot-1474.svg" vertex="1" parent="1">
          <mxGeometry x="560" y="210" width="256" height="256" as="geometry" />
        </mxCell>
        <mxCell id="Vqp-YqoyTi2O_p_7qMB2-8" value="" style="shape=image;html=1;verticalAlign=top;verticalLabelPosition=bottom;labelBackgroundColor=#ffffff;imageAspect=0;aspect=fixed;image=https://icons.diagrams.net/icon-cache1/Phosphor_Regular_Vol_4-2948/robot-1474.svg" vertex="1" parent="1">
          <mxGeometry x="264" y="210" width="256" height="256" as="geometry" />
        </mxCell>
      </root>
    </mxGraphModel>
  </diagram>
</mxfile>
